<?xml version="1.0" encoding="UTF-8"?>
<svg xmlns="http://www.w3.org/2000/svg" viewBox="184.80818 -17.744405 545.78805 531.345135" width="545.78805" height="531.345135">
  <title>Combo_0165</title>

  <!-- Area Data (Square SVG Inches) -->
  <!-- polygonArea: 17877.1682 -->
  <!-- boardroomArea: 1529.8089 -->
  <!-- sets: 76 -->
  <!-- tables: 152 -->
  <!-- computationTimeMs: 1619.6 -->

  <!-- White Background -->
  <rect x="184.80818" y="-17.744405" width="545.78805" height="531.345135" fill="white"/>

  <!-- Test Paths -->
  <g opacity="0.3">
    <path id="Ballroom_Room_1" d="M 350.97122,32.255595 V 128.07719 H 234.80818 V 32.255595 Z" fill="none" stroke="#808080" stroke-width="1"/>
    <path id="Ballroom_Room_2" d="m 350.97122,147.93412 v 91.34187 c -40.53334,-7.65498 -76.62104,-11.70518 -116.16304,-13.40541 v -77.93646 z" fill="none" stroke="#808080" stroke-width="1"/>
    <path id="Ballroom_Room_3" d="m 458.19863,32.255595 0,95.821595 H 350.97122 V 32.255595 Z" fill="none" stroke="#808080" stroke-width="1"/>
    <path id="Ballroom_Room_4" d="m 458.19863,147.93412 v 111.1988 c -39.14199,-8.77234 -69.83329,-15.49794 -107.22741,-19.85693 v -91.34187 z" fill="none" stroke="#808080" stroke-width="1"/>
    <path id="Ballroom_Room_5" d="m 680.59623,32.255595 0,95.821595 H 478.05556 V 32.255595 Z" fill="none" stroke="#808080" stroke-width="1"/>
    <path id="Ballroom_Aisle_12" d="m 350.97122,128.07719 v 19.85693 H 234.80818 v -19.85693 z" fill="none" stroke="#808080" stroke-width="1"/>
    <path id="Ballroom_Aisle_34" d="m 458.19863,128.07719 v 19.85693 l -107.22741,0 v -19.85693 z" fill="none" stroke="#808080" stroke-width="1"/>
    <path id="Ballroom_Aisle_35" d="m 458.19863,32.255595 h 19.85693 l 0,95.821595 h -19.85693 z" fill="none" stroke="#808080" stroke-width="1"/>
    <path id="Ballroom_Aisle_46" d="m 458.19863,147.93412 h 19.85693 l 0,115.66661 -19.85693,-4.46781 z" fill="none" stroke="#808080" stroke-width="1"/>
    <path id="Ballroom_Crossing_3456" d="m 478.05556,128.07719 0,19.85693 h -19.85693 v -19.85693 z" fill="none" stroke="#808080" stroke-width="1"/>
  </g>

  <!-- Boundary Polygon (outer boundary) -->
  <polygon points="234.81,32.26 350.97122,32.255595 458.19863,32.255595 478.05556,32.255595 680.59623,32.255595 680.59623,128.07719 478.05556,128.07719 478.05556,147.93412 478.05555999999996,263.60073 458.19863,259.13292 350.97122,239.27599 234.80818000000002,225.87058000000002 234.80818,147.93412 234.80818,128.07719"
           fill="rgba(100, 150, 255, 0.2)"
           stroke="#4080ff"
           stroke-width="1"
           stroke-dasharray="5,5"/>


  <!-- Boardroom Layout Rectangle -->
  <polygon points="673.4877620907139,35.777817790259505 677.9340239539475,47.9938218604763 241.91664790928613,206.69116836358666 237.47038604605243,194.47516429336986"
           fill="rgba(255, 165, 0, 0.25)"
           stroke="#ff8800"
           stroke-width="2"
           stroke-dasharray="none"/>

  <!-- Boardroom Centroid -->
  <circle cx="457.702205" cy="121.23449307692307" r="4" fill="#ff8800"/>
  <text x="465.702205" y="113.23449307692307" font-size="8" fill="#ff6600">boardroom</text>

  <!-- Boardroom Corners -->
  
  <circle cx="673.4877620907139" cy="35.777817790259505" r="3" fill="#ff8800"/>
  <text x="679.4877620907139" y="50.777817790259505" font-size="8" fill="#ff6600">br0</text>
  <circle cx="677.9340239539475" cy="47.9938218604763" r="3" fill="#ff8800"/>
  <text x="657.9340239539475" y="62.9938218604763" font-size="8" fill="#ff6600">br1</text>
  <circle cx="241.91664790928613" cy="206.69116836358666" r="3" fill="#ff8800"/>
  <text x="247.91664790928613" y="201.69116836358666" font-size="8" fill="#ff6600">br2</text>
  <circle cx="237.47038604605243" cy="194.47516429336986" r="3" fill="#ff8800"/>
  <text x="217.47038604605243" y="189.47516429336986" font-size="8" fill="#ff6600">br3</text>

  <!-- Boundary Vertices -->
  
  <circle cx="234.81" cy="32.26" r="3" fill="#4080ff"/>
  <text x="240.81" y="26.259999999999998" font-size="8" fill="#4080ff">p0</text>
  <circle cx="350.97122" cy="32.255595" r="3" fill="#4080ff"/>
  <text x="356.97122" y="26.255595" font-size="8" fill="#4080ff">p1</text>
  <circle cx="458.19863" cy="32.255595" r="3" fill="#4080ff"/>
  <text x="464.19863" y="26.255595" font-size="8" fill="#4080ff">p2</text>
  <circle cx="478.05556" cy="32.255595" r="3" fill="#4080ff"/>
  <text x="484.05556" y="26.255595" font-size="8" fill="#4080ff">p3</text>
  <circle cx="680.59623" cy="32.255595" r="3" fill="#4080ff"/>
  <text x="686.59623" y="26.255595" font-size="8" fill="#4080ff">p4</text>
  <circle cx="680.59623" cy="128.07719" r="3" fill="#4080ff"/>
  <text x="686.59623" y="122.07719" font-size="8" fill="#4080ff">p5</text>
  <circle cx="478.05556" cy="128.07719" r="3" fill="#4080ff"/>
  <text x="484.05556" y="122.07719" font-size="8" fill="#4080ff">p6</text>
  <circle cx="478.05556" cy="147.93412" r="3" fill="#4080ff"/>
  <text x="484.05556" y="141.93412" font-size="8" fill="#4080ff">p7</text>
  <circle cx="478.05555999999996" cy="263.60073" r="3" fill="#4080ff"/>
  <text x="484.05555999999996" y="257.60073" font-size="8" fill="#4080ff">p8</text>
  <circle cx="458.19863" cy="259.13292" r="3" fill="#4080ff"/>
  <text x="464.19863" y="253.13292" font-size="8" fill="#4080ff">p9</text>
  <circle cx="350.97122" cy="239.27599" r="3" fill="#4080ff"/>
  <text x="356.97122" y="233.27599" font-size="8" fill="#4080ff">p10</text>
  <circle cx="234.80818000000002" cy="225.87058000000002" r="3" fill="#4080ff"/>
  <text x="240.80818000000002" y="219.87058000000002" font-size="8" fill="#4080ff">p11</text>
  <circle cx="234.80818" cy="147.93412" r="3" fill="#4080ff"/>
  <text x="240.80818" y="141.93412" font-size="8" fill="#4080ff">p12</text>
  <circle cx="234.80818" cy="128.07719" r="3" fill="#4080ff"/>
  <text x="240.80818" y="122.07719" font-size="8" fill="#4080ff">p13</text>


  <!-- Title -->
  <text x="194.80818" y="383.60073" font-size="14" font-weight="bold">Combo_0165 - Boardroom Layout</text>

  <!-- Combinations Key -->
  <text x="194.80818" y="363.60073" font-size="9" fill="#666">Paths: Ballroom_Room_1, Ballroom_Room_2, Ballroom_Room_3, Ballroom_Room_4, Ballroom_Room_5, Ballroom_Aisle_12, Ballroom_Aisle_34, Ballroom_Aisle_35, Ballroom_Aisle_46, Ballroom_Crossing_3456</text>

  <!-- Table Header Background -->
  <rect x="194.80818" y="393.60073" width="300" height="20" fill="#f0f0f0" stroke="#333" stroke-width="1"/>

  <!-- Table Header -->
  <text x="204.80818" y="407.60073" font-size="9" font-weight="bold">Metric</text>
  <text x="314.80818" y="407.60073" font-size="9" font-weight="bold">Value</text>

  <!-- Data Row 1: Sets/Tables -->
  <rect x="194.80818" y="413.60073" width="300" height="18" fill="rgba(255, 165, 0, 0.15)" stroke="#333" stroke-width="1"/>
  <circle cx="209.80818" cy="422.60073" r="3" fill="#ff8800"/>
  <text x="217.80818" y="425.60073" font-size="8" fill="#ff6600">Sets/Tables</text>
  <text x="314.80818" y="425.60073" font-size="8">76 sets (152 tables)</text>

  <!-- Data Row 2: Dimensions -->
  <rect x="194.80818" y="431.60073" width="300" height="18" fill="white" stroke="#333" stroke-width="1"/>
  <text x="204.80818" y="443.60073" font-size="8">Dimensions</text>
  <text x="314.80818" y="443.60073" font-size="8">13.0 × 464.0 ft</text>

  <!-- Data Row 3: Boardroom Area -->
  <rect x="194.80818" y="449.60073" width="300" height="18" fill="white" stroke="#333" stroke-width="1"/>
  <text x="204.80818" y="461.60073" font-size="8">Boardroom Area</text>
  <text x="314.80818" y="461.60073" font-size="8">1529.81 sq in</text>

  <!-- Data Row 4: Polygon Area -->
  <rect x="194.80818" y="467.60073" width="300" height="18" fill="white" stroke="#333" stroke-width="1"/>
  <text x="204.80818" y="479.60073" font-size="8">Polygon Area</text>
  <text x="314.80818" y="479.60073" font-size="8">17877.17 sq in</text>

  <!-- Summary Row: Fill Ratio -->
  <rect x="194.80818" y="485.60073" width="300" height="18" fill="#f8f8f8" stroke="#333" stroke-width="1"/>
  <text x="204.80818" y="497.60073" font-size="8" font-weight="bold">Fill Ratio:</text>
  <text x="314.80818" y="497.60073" font-size="8">8.6%</text>

</svg>