<?xml version="1.0" encoding="UTF-8"?>
<svg xmlns="http://www.w3.org/2000/svg" viewBox="408.19863 -17.744405 340 395.821595" width="340" height="395.821595">
  <title>Combo_0032</title>

  <!-- Area Data (Square SVG Inches) -->
  <!-- polygonArea: 5404.6442 -->
  <!-- boardroomArea: 758.3104 -->
  <!-- sets: 37 -->
  <!-- tables: 74 -->
  <!-- computationTimeMs: 1260.0 -->

  <!-- White Background -->
  <rect x="408.19863" y="-17.744405" width="340" height="395.821595" fill="white"/>

  <!-- Test Paths -->
  <g opacity="0.3">
    <path id="Ballroom_Room_5" d="m 680.59623,32.255595 0,95.821595 H 478.05556 V 32.255595 Z" fill="none" stroke="#808080" stroke-width="1"/>
    <path id="Ballroom_Aisle_35" d="m 458.19863,32.255595 h 19.85693 l 0,95.821595 h -19.85693 z" fill="none" stroke="#808080" stroke-width="1"/>
  </g>

  <!-- Boundary Polygon (outer boundary) -->
  <polygon points="458.2,32.26 478.05556,32.255595 680.59623,32.255595 680.59623,128.07719 478.05556,128.07719 458.19863,128.07719"
           fill="rgba(100, 150, 255, 0.2)"
           stroke="#4080ff"
           stroke-width="1"
           stroke-dasharray="5,5"/>


  <!-- Boardroom Layout Rectangle -->
  <polygon points="463.5559095412374,34.726073982439694 679.6852123219963,113.39070694734349 675.2389504587626,125.60671101756031 459.1096476780037,46.942078052656505"
           fill="rgba(255, 165, 0, 0.25)"
           stroke="#ff8800"
           stroke-width="2"
           stroke-dasharray="none"/>

  <!-- Boardroom Centroid -->
  <circle cx="569.39743" cy="80.1663925" r="4" fill="#ff8800"/>
  <text x="577.39743" y="72.1663925" font-size="8" fill="#ff6600">boardroom</text>

  <!-- Boardroom Corners -->
  
  <circle cx="463.5559095412374" cy="34.726073982439694" r="3" fill="#ff8800"/>
  <text x="469.5559095412374" y="49.726073982439694" font-size="8" fill="#ff6600">br0</text>
  <circle cx="679.6852123219963" cy="113.39070694734349" r="3" fill="#ff8800"/>
  <text x="659.6852123219963" y="128.3907069473435" font-size="8" fill="#ff6600">br1</text>
  <circle cx="675.2389504587626" cy="125.60671101756031" r="3" fill="#ff8800"/>
  <text x="681.2389504587626" y="120.60671101756031" font-size="8" fill="#ff6600">br2</text>
  <circle cx="459.1096476780037" cy="46.942078052656505" r="3" fill="#ff8800"/>
  <text x="439.1096476780037" y="41.942078052656505" font-size="8" fill="#ff6600">br3</text>

  <!-- Boundary Vertices -->
  
  <circle cx="458.2" cy="32.26" r="3" fill="#4080ff"/>
  <text x="464.2" y="26.259999999999998" font-size="8" fill="#4080ff">p0</text>
  <circle cx="478.05556" cy="32.255595" r="3" fill="#4080ff"/>
  <text x="484.05556" y="26.255595" font-size="8" fill="#4080ff">p1</text>
  <circle cx="680.59623" cy="32.255595" r="3" fill="#4080ff"/>
  <text x="686.59623" y="26.255595" font-size="8" fill="#4080ff">p2</text>
  <circle cx="680.59623" cy="128.07719" r="3" fill="#4080ff"/>
  <text x="686.59623" y="122.07719" font-size="8" fill="#4080ff">p3</text>
  <circle cx="478.05556" cy="128.07719" r="3" fill="#4080ff"/>
  <text x="484.05556" y="122.07719" font-size="8" fill="#4080ff">p4</text>
  <circle cx="458.19863" cy="128.07719" r="3" fill="#4080ff"/>
  <text x="464.19863" y="122.07719" font-size="8" fill="#4080ff">p5</text>


  <!-- Title -->
  <text x="418.19863" y="248.07718999999997" font-size="14" font-weight="bold">Combo_0032 - Boardroom Layout</text>

  <!-- Combinations Key -->
  <text x="418.19863" y="228.07718999999997" font-size="9" fill="#666">Paths: Ballroom_Room_5, Ballroom_Aisle_35</text>

  <!-- Table Header Background -->
  <rect x="418.19863" y="258.07719" width="300" height="20" fill="#f0f0f0" stroke="#333" stroke-width="1"/>

  <!-- Table Header -->
  <text x="428.19863" y="272.07719" font-size="9" font-weight="bold">Metric</text>
  <text x="538.19863" y="272.07719" font-size="9" font-weight="bold">Value</text>

  <!-- Data Row 1: Sets/Tables -->
  <rect x="418.19863" y="278.07719" width="300" height="18" fill="rgba(255, 165, 0, 0.15)" stroke="#333" stroke-width="1"/>
  <circle cx="433.19863" cy="287.07719" r="3" fill="#ff8800"/>
  <text x="441.19863" y="290.07719" font-size="8" fill="#ff6600">Sets/Tables</text>
  <text x="538.19863" y="290.07719" font-size="8">37 sets (74 tables)</text>

  <!-- Data Row 2: Dimensions -->
  <rect x="418.19863" y="296.07719" width="300" height="18" fill="white" stroke="#333" stroke-width="1"/>
  <text x="428.19863" y="308.07719" font-size="8">Dimensions</text>
  <text x="538.19863" y="308.07719" font-size="8">230.0 × 13.0 ft</text>

  <!-- Data Row 3: Boardroom Area -->
  <rect x="418.19863" y="314.07719" width="300" height="18" fill="white" stroke="#333" stroke-width="1"/>
  <text x="428.19863" y="326.07719" font-size="8">Boardroom Area</text>
  <text x="538.19863" y="326.07719" font-size="8">758.31 sq in</text>

  <!-- Data Row 4: Polygon Area -->
  <rect x="418.19863" y="332.07719" width="300" height="18" fill="white" stroke="#333" stroke-width="1"/>
  <text x="428.19863" y="344.07719" font-size="8">Polygon Area</text>
  <text x="538.19863" y="344.07719" font-size="8">5404.64 sq in</text>

  <!-- Summary Row: Fill Ratio -->
  <rect x="418.19863" y="350.07719" width="300" height="18" fill="#f8f8f8" stroke="#333" stroke-width="1"/>
  <text x="428.19863" y="362.07719" font-size="8" font-weight="bold">Fill Ratio:</text>
  <text x="538.19863" y="362.07719" font-size="8">14.0%</text>

</svg>