<?xml version="1.0" encoding="UTF-8"?>
<svg xmlns="http://www.w3.org/2000/svg"
     viewBox="214.80818 12.255595 623.24738 180"
     width="623.24738" height="180"
     style="background: white;">

  <!-- Title -->
  <text x="234.80818" y="52.255595" font-size="16" font-weight="bold" fill="#000">
    Boardroom_Ballroom_0037
  </text>

  <!-- Original test paths (gray, semi-transparent) -->
  <g opacity="0.3">
    <path id="Ballroom_Aisle_12" d="m 350.97122,128.07719 v 19.85693 H 234.80818 v -19.85693 z" fill="none" stroke="#808080" stroke-width="1"/>
    <path id="Ballroom_Aisle_35" d="m 458.19863,32.255595 h 19.85693 l 0,95.821595 h -19.85693 z" fill="none" stroke="#808080" stroke-width="1"/>
    <path id="Ballroom_Room_1" d="M 350.97122,32.255595 V 128.07719 H 234.80818 V 32.255595 Z" fill="none" stroke="#808080" stroke-width="1"/>
    <path id="Ballroom_Room_3" d="m 458.19863,32.255595 0,95.821595 H 350.97122 V 32.255595 Z" fill="none" stroke="#808080" stroke-width="1"/>
  </g>

  <!-- Boundary polygon (blue, dashed) -->
  <polygon points="234.81,32.26 350.97122,32.255595 458.19863,32.255595 478.05555999999996,32.255595 478.05555999999996,128.07719 458.19863,128.07719 350.97122,128.07719 350.97122,147.93412 234.80818,147.93412 234.80818,128.07719" fill="none" stroke="#4080ff" stroke-width="2" stroke-dasharray="5,5"/>

  <!-- Layout rectangle (colored fill, solid border) -->
  <polygon points="476.92944311514105,47.259886589394185 242.6257686713017,140.02727386593298 237.8401494864009,127.94017954938572 472.1438239302403,35.17279227284692" fill="rgba(5, 150, 105, 0.15)" stroke="#059669" stroke-width="3"/>

  <!-- Centroid marker -->
  <circle cx="357.384796300771" cy="87.60003306938995" r="4" fill="#059669"/>
  <text x="365.384796300771" y="92.60003306938995" font-size="10" fill="#059669">boardroom</text>

  <!-- Corner markers -->

  <circle cx="476.92944311514105" cy="47.259886589394185" r="3" fill="#059669"/>
  <text x="482.92944311514105" y="51.259886589394185" font-size="8" fill="#059669">c0</text>
  <circle cx="242.6257686713017" cy="140.02727386593298" r="3" fill="#059669"/>
  <text x="248.6257686713017" y="144.02727386593298" font-size="8" fill="#059669">c1</text>
  <circle cx="237.8401494864009" cy="127.94017954938572" r="3" fill="#059669"/>
  <text x="243.8401494864009" y="131.94017954938573" font-size="8" fill="#059669">c2</text>
  <circle cx="472.1438239302403" cy="35.17279227284692" r="3" fill="#059669"/>
  <text x="478.1438239302403" y="39.17279227284692" font-size="8" fill="#059669">c3</text>

  <!-- Vertex markers -->

  <circle cx="234.81" cy="32.26" r="2" fill="#4080ff"/>
  <text x="226.81" y="26.259999999999998" font-size="8" fill="#4080ff">p0</text>
  <circle cx="350.97122" cy="32.255595" r="2" fill="#4080ff"/>
  <text x="342.97122" y="26.255595" font-size="8" fill="#4080ff">p1</text>
  <circle cx="458.19863" cy="32.255595" r="2" fill="#4080ff"/>
  <text x="450.19863" y="26.255595" font-size="8" fill="#4080ff">p2</text>
  <circle cx="478.05555999999996" cy="32.255595" r="2" fill="#4080ff"/>
  <text x="470.05555999999996" y="26.255595" font-size="8" fill="#4080ff">p3</text>
  <circle cx="478.05555999999996" cy="128.07719" r="2" fill="#4080ff"/>
  <text x="470.05555999999996" y="122.07719" font-size="8" fill="#4080ff">p4</text>
  <circle cx="458.19863" cy="128.07719" r="2" fill="#4080ff"/>
  <text x="450.19863" y="122.07719" font-size="8" fill="#4080ff">p5</text>
  <circle cx="350.97122" cy="128.07719" r="2" fill="#4080ff"/>
  <text x="342.97122" y="122.07719" font-size="8" fill="#4080ff">p6</text>
  <circle cx="350.97122" cy="147.93412" r="2" fill="#4080ff"/>
  <text x="342.97122" y="141.93412" font-size="8" fill="#4080ff">p7</text>
  <circle cx="234.80818" cy="147.93412" r="2" fill="#4080ff"/>
  <text x="226.80818" y="141.93412" font-size="8" fill="#4080ff">p8</text>
  <circle cx="234.80818" cy="128.07719" r="2" fill="#4080ff"/>
  <text x="226.80818" y="122.07719" font-size="8" fill="#4080ff">p9</text>

  <!-- Data Table (positioned to the right) -->
  <g transform="translate(498.05555999999996, 32.255595)">
    <rect x="0" y="0" width="320" height="160" fill="white" stroke="#ccc" stroke-width="1"/>
    <rect x="0" y="0" width="320" height="30" fill="#f0f0f0"/>
    <text x="160" y="20" font-size="14" font-weight="bold" text-anchor="middle">Boardroom Layout</text>

    <text x="10" y="50" font-size="11" font-weight="bold">Tables:</text>
    <text x="310" y="50" font-size="11" text-anchor="end">82 (41 sets)</text>

    <text x="10" y="70" font-size="11" font-weight="bold">Dimensions:</text>
    <text x="310" y="70" font-size="11" text-anchor="end">252.0 × 13.0 ft</text>

    <text x="10" y="90" font-size="11" font-weight="bold">Area:</text>
    <text x="310" y="90" font-size="11" text-anchor="end">3276.00 sq ft</text>

    <text x="10" y="110" font-size="11" font-weight="bold">Fill Ratio:</text>
    <text x="310" y="110" font-size="11" text-anchor="end">12.8%</text>

    <text x="10" y="130" font-size="11" font-weight="bold">Angle:</text>
    <text x="310" y="130" font-size="11" text-anchor="end">158.4°</text>

    <text x="10" y="150" font-size="11" font-weight="bold">Runtime:</text>
    <text x="310" y="150" font-size="11" text-anchor="end">402ms</text>
  </g>

  <!-- Area Data (embedded as XML comments for extraction) -->
  <!-- polygonArea: 25614.6502 -->
  <!-- layoutArea: 3276.00 -->
  <!-- fillRatio: 12.8 -->

</svg>