<?xml version="1.0" encoding="UTF-8"?>
<svg xmlns="http://www.w3.org/2000/svg"
     viewBox="193.06 233.37 501.13211 180"
     width="501.13211" height="180"
     style="background: white;">

  <!-- Title -->
  <text x="213.06" y="273.37" font-size="16" font-weight="bold" fill="#000">
    Boardroom_BeachDeck_0002
  </text>

  <!-- Original test paths (gray, semi-transparent) -->
  <g opacity="0.3">
    <path id="BeachDeck_Room_BeachDeck" d="m 334.19211,263.30288 v 97.29895 H 213.06485 V 253.37441 c 43.94752,1.46332 73.93724,4.81735 121.12726,9.92847 z" fill="none" stroke="#808080" stroke-width="1"/>
  </g>

  <!-- Boundary polygon (blue, dashed) -->
  <polygon points="213.06,253.37 334.19211,263.30288 334.19211,360.60183 213.06485,360.60183" fill="none" stroke="#4080ff" stroke-width="2" stroke-dasharray="5,5"/>

  <!-- Layout rectangle (colored fill, solid border) -->
  <polygon points="224.73542815738807,255.3944155927685 325.33309874154287,349.8619162109275 316.43398636446994,359.3385083674059 215.83631578031515,264.87100774924687" fill="rgba(5, 150, 105, 0.15)" stroke="#059669" stroke-width="3"/>

  <!-- Centroid marker -->
  <circle cx="270.584707260929" cy="307.3664619800872" r="4" fill="#059669"/>
  <text x="278.584707260929" y="312.3664619800872" font-size="10" fill="#059669">boardroom</text>

  <!-- Corner markers -->

  <circle cx="224.73542815738807" cy="255.3944155927685" r="3" fill="#059669"/>
  <text x="230.73542815738807" y="259.3944155927685" font-size="8" fill="#059669">c0</text>
  <circle cx="325.33309874154287" cy="349.8619162109275" r="3" fill="#059669"/>
  <text x="331.33309874154287" y="353.8619162109275" font-size="8" fill="#059669">c1</text>
  <circle cx="316.43398636446994" cy="359.3385083674059" r="3" fill="#059669"/>
  <text x="322.43398636446994" y="363.3385083674059" font-size="8" fill="#059669">c2</text>
  <circle cx="215.83631578031515" cy="264.87100774924687" r="3" fill="#059669"/>
  <text x="221.83631578031515" y="268.87100774924687" font-size="8" fill="#059669">c3</text>

  <!-- Vertex markers -->

  <circle cx="213.06" cy="253.37" r="2" fill="#4080ff"/>
  <text x="205.06" y="247.37" font-size="8" fill="#4080ff">p0</text>
  <circle cx="334.19211" cy="263.30288" r="2" fill="#4080ff"/>
  <text x="326.19211" y="257.30288" font-size="8" fill="#4080ff">p1</text>
  <circle cx="334.19211" cy="360.60183" r="2" fill="#4080ff"/>
  <text x="326.19211" y="354.60183" font-size="8" fill="#4080ff">p2</text>
  <circle cx="213.06485" cy="360.60183" r="2" fill="#4080ff"/>
  <text x="205.06485" y="354.60183" font-size="8" fill="#4080ff">p3</text>

  <!-- Data Table (positioned to the right) -->
  <g transform="translate(354.19211, 253.37)">
    <rect x="0" y="0" width="320" height="160" fill="white" stroke="#ccc" stroke-width="1"/>
    <rect x="0" y="0" width="320" height="30" fill="#f0f0f0"/>
    <text x="160" y="20" font-size="14" font-weight="bold" text-anchor="middle">Boardroom Layout</text>

    <text x="10" y="50" font-size="11" font-weight="bold">Tables:</text>
    <text x="310" y="50" font-size="11" text-anchor="end">44 (22 sets)</text>

    <text x="10" y="70" font-size="11" font-weight="bold">Dimensions:</text>
    <text x="310" y="70" font-size="11" text-anchor="end">138.0 × 13.0 ft</text>

    <text x="10" y="90" font-size="11" font-weight="bold">Area:</text>
    <text x="310" y="90" font-size="11" text-anchor="end">1794.00 sq ft</text>

    <text x="10" y="110" font-size="11" font-weight="bold">Fill Ratio:</text>
    <text x="310" y="110" font-size="11" text-anchor="end">14.5%</text>

    <text x="10" y="130" font-size="11" font-weight="bold">Angle:</text>
    <text x="310" y="130" font-size="11" text-anchor="end">43.2°</text>

    <text x="10" y="150" font-size="11" font-weight="bold">Runtime:</text>
    <text x="310" y="150" font-size="11" text-anchor="end">92ms</text>
  </g>

  <!-- Area Data (embedded as XML comments for extraction) -->
  <!-- polygonArea: 12387.3624 -->
  <!-- layoutArea: 1794.00 -->
  <!-- fillRatio: 14.5 -->

</svg>