<?xml version="1.0" encoding="UTF-8"?>
<svg xmlns="http://www.w3.org/2000/svg"
     viewBox="214.80818 12.255595 825.78805 308.576875"
     width="825.78805" height="308.576875"
     style="background: white;">

  <!-- Title -->
  <text x="234.80818" y="52.255595" font-size="16" font-weight="bold" fill="#000">
    Boardroom_Ballroom_0110
  </text>

  <!-- Original test paths (gray, semi-transparent) -->
  <g opacity="0.3">
    <path id="Ballroom_Aisle_12" d="m 350.97122,128.07719 v 19.85693 H 234.80818 v -19.85693 z" fill="none" stroke="#808080" stroke-width="1"/>
    <path id="Ballroom_Aisle_46" d="m 458.19863,147.93412 h 19.85693 l 0,115.66661 -19.85693,-4.46781 z" fill="none" stroke="#808080" stroke-width="1"/>
    <path id="Ballroom_Aisle_56" d="m 680.59623,128.07719 -5.95708,19.85693 H 478.05556 v -19.85693 z" fill="none" stroke="#808080" stroke-width="1"/>
    <path id="Ballroom_Room_1" d="M 350.97122,32.255595 V 128.07719 H 234.80818 V 32.255595 Z" fill="none" stroke="#808080" stroke-width="1"/>
    <path id="Ballroom_Room_2" d="m 350.97122,147.93412 v 91.34187 c -40.53334,-7.65498 -76.62104,-11.70518 -116.16304,-13.40541 v -77.93646 z" fill="none" stroke="#808080" stroke-width="1"/>
    <path id="Ballroom_Room_4" d="m 458.19863,147.93412 v 111.1988 c -39.14199,-8.77234 -69.83329,-15.49794 -107.22741,-19.85693 v -91.34187 z" fill="none" stroke="#808080" stroke-width="1"/>
    <path id="Ballroom_Room_Grand" d="m 674.63915,147.93412 c -13.77093,46.32866 -28.44265,94.4522 -41.69955,140.98419 l -31.77108,11.91416 C 559.50968,285.82798 528.19209,276.69667 478.05556,263.60073 V 147.93412 Z" fill="none" stroke="#808080" stroke-width="1"/>
  </g>

  <!-- Boundary polygon (blue, dashed) -->
  <polygon points="234.81,32.26 350.97122,32.255595 350.97122,128.07719 350.97122,147.93412 458.19863,147.93412 478.05556,147.93412 478.05556,128.07719 680.59623,128.07719 674.63915,147.93412 632.9395999999999,288.91831 601.16852,300.83247 478.05556,263.60073 458.19863,259.13292 350.97122,239.27599 234.80818000000002,225.87058000000002 234.80818,147.93412 234.80818,128.07719" fill="none" stroke="#4080ff" stroke-width="2" stroke-dasharray="5,5"/>

  <!-- Layout rectangle (colored fill, solid border) -->
  <polygon points="673.0168278490867,150.89405441062544 238.47058867334545,205.79001071179084 236.8412566370095,192.89251959470263 671.3874958127508,137.99656329353724" fill="rgba(5, 150, 105, 0.15)" stroke="#059669" stroke-width="3"/>

  <!-- Centroid marker -->
  <circle cx="454.9290422430481" cy="171.89328700266404" r="4" fill="#059669"/>
  <text x="462.9290422430481" y="176.89328700266404" font-size="10" fill="#059669">boardroom</text>

  <!-- Corner markers -->

  <circle cx="673.0168278490867" cy="150.89405441062544" r="3" fill="#059669"/>
  <text x="679.0168278490867" y="154.89405441062544" font-size="8" fill="#059669">c0</text>
  <circle cx="238.47058867334545" cy="205.79001071179084" r="3" fill="#059669"/>
  <text x="244.47058867334545" y="209.79001071179084" font-size="8" fill="#059669">c1</text>
  <circle cx="236.8412566370095" cy="192.89251959470263" r="3" fill="#059669"/>
  <text x="242.8412566370095" y="196.89251959470263" font-size="8" fill="#059669">c2</text>
  <circle cx="671.3874958127508" cy="137.99656329353724" r="3" fill="#059669"/>
  <text x="677.3874958127508" y="141.99656329353724" font-size="8" fill="#059669">c3</text>

  <!-- Vertex markers -->

  <circle cx="234.81" cy="32.26" r="2" fill="#4080ff"/>
  <text x="226.81" y="26.259999999999998" font-size="8" fill="#4080ff">p0</text>
  <circle cx="350.97122" cy="32.255595" r="2" fill="#4080ff"/>
  <text x="342.97122" y="26.255595" font-size="8" fill="#4080ff">p1</text>
  <circle cx="350.97122" cy="128.07719" r="2" fill="#4080ff"/>
  <text x="342.97122" y="122.07719" font-size="8" fill="#4080ff">p2</text>
  <circle cx="350.97122" cy="147.93412" r="2" fill="#4080ff"/>
  <text x="342.97122" y="141.93412" font-size="8" fill="#4080ff">p3</text>
  <circle cx="458.19863" cy="147.93412" r="2" fill="#4080ff"/>
  <text x="450.19863" y="141.93412" font-size="8" fill="#4080ff">p4</text>
  <circle cx="478.05556" cy="147.93412" r="2" fill="#4080ff"/>
  <text x="470.05556" y="141.93412" font-size="8" fill="#4080ff">p5</text>
  <circle cx="478.05556" cy="128.07719" r="2" fill="#4080ff"/>
  <text x="470.05556" y="122.07719" font-size="8" fill="#4080ff">p6</text>
  <circle cx="680.59623" cy="128.07719" r="2" fill="#4080ff"/>
  <text x="672.59623" y="122.07719" font-size="8" fill="#4080ff">p7</text>
  <circle cx="674.63915" cy="147.93412" r="2" fill="#4080ff"/>
  <text x="666.63915" y="141.93412" font-size="8" fill="#4080ff">p8</text>
  <circle cx="632.9395999999999" cy="288.91831" r="2" fill="#4080ff"/>
  <text x="624.9395999999999" y="282.91831" font-size="8" fill="#4080ff">p9</text>
  <circle cx="601.16852" cy="300.83247" r="2" fill="#4080ff"/>
  <text x="593.16852" y="294.83247" font-size="8" fill="#4080ff">p10</text>
  <circle cx="478.05556" cy="263.60073" r="2" fill="#4080ff"/>
  <text x="470.05556" y="257.60073" font-size="8" fill="#4080ff">p11</text>
  <circle cx="458.19863" cy="259.13292" r="2" fill="#4080ff"/>
  <text x="450.19863" y="253.13292" font-size="8" fill="#4080ff">p12</text>
  <circle cx="350.97122" cy="239.27599" r="2" fill="#4080ff"/>
  <text x="342.97122" y="233.27599" font-size="8" fill="#4080ff">p13</text>
  <circle cx="234.80818000000002" cy="225.87058000000002" r="2" fill="#4080ff"/>
  <text x="226.80818000000002" y="219.87058000000002" font-size="8" fill="#4080ff">p14</text>
  <circle cx="234.80818" cy="147.93412" r="2" fill="#4080ff"/>
  <text x="226.80818" y="141.93412" font-size="8" fill="#4080ff">p15</text>
  <circle cx="234.80818" cy="128.07719" r="2" fill="#4080ff"/>
  <text x="226.80818" y="122.07719" font-size="8" fill="#4080ff">p16</text>

  <!-- Data Table (positioned to the right) -->
  <g transform="translate(700.59623, 32.255595)">
    <rect x="0" y="0" width="320" height="160" fill="white" stroke="#ccc" stroke-width="1"/>
    <rect x="0" y="0" width="320" height="30" fill="#f0f0f0"/>
    <text x="160" y="20" font-size="14" font-weight="bold" text-anchor="middle">Boardroom Layout</text>

    <text x="10" y="50" font-size="11" font-weight="bold">Tables:</text>
    <text x="310" y="50" font-size="11" text-anchor="end">144 (72 sets)</text>

    <text x="10" y="70" font-size="11" font-weight="bold">Dimensions:</text>
    <text x="310" y="70" font-size="11" text-anchor="end">438.0 × 13.0 ft</text>

    <text x="10" y="90" font-size="11" font-weight="bold">Area:</text>
    <text x="310" y="90" font-size="11" text-anchor="end">5694.00 sq ft</text>

    <text x="10" y="110" font-size="11" font-weight="bold">Fill Ratio:</text>
    <text x="310" y="110" font-size="11" text-anchor="end">8.8%</text>

    <text x="10" y="130" font-size="11" font-weight="bold">Angle:</text>
    <text x="310" y="130" font-size="11" text-anchor="end">172.8°</text>

    <text x="10" y="150" font-size="11" font-weight="bold">Runtime:</text>
    <text x="310" y="150" font-size="11" text-anchor="end">266ms</text>
  </g>

  <!-- Area Data (embedded as XML comments for extraction) -->
  <!-- polygonArea: 64483.1261 -->
  <!-- layoutArea: 5694.00 -->
  <!-- fillRatio: 8.8 -->

</svg>