<?xml version="1.0" encoding="UTF-8"?>
<svg xmlns="http://www.w3.org/2000/svg"
     viewBox="214.80818 12.255595 623.24738 180"
     width="623.24738" height="180"
     style="background: white;">

  <!-- Title -->
  <text x="234.80818" y="52.255595" font-size="16" font-weight="bold" fill="#000">
    Boardroom_Ballroom_0051
  </text>

  <!-- Original test paths (gray, semi-transparent) -->
  <g opacity="0.3">
    <path id="Ballroom_Aisle_12" d="m 350.97122,128.07719 v 19.85693 H 234.80818 v -19.85693 z" fill="none" stroke="#808080" stroke-width="1"/>
    <path id="Ballroom_Aisle_34" d="m 458.19863,128.07719 v 19.85693 l -107.22741,0 v -19.85693 z" fill="none" stroke="#808080" stroke-width="1"/>
    <path id="Ballroom_Aisle_35" d="m 458.19863,32.255595 h 19.85693 l 0,95.821595 h -19.85693 z" fill="none" stroke="#808080" stroke-width="1"/>
    <path id="Ballroom_Room_1" d="M 350.97122,32.255595 V 128.07719 H 234.80818 V 32.255595 Z" fill="none" stroke="#808080" stroke-width="1"/>
    <path id="Ballroom_Room_3" d="m 458.19863,32.255595 0,95.821595 H 350.97122 V 32.255595 Z" fill="none" stroke="#808080" stroke-width="1"/>
  </g>

  <!-- Boundary polygon (blue, dashed) -->
  <polygon points="234.81,32.26 350.97122,32.255595 458.19863,32.255595 478.05555999999996,32.255595 478.05555999999996,128.07719 458.19863,128.07719 458.19863,147.93412 350.97122,147.93412 234.80818,147.93412 234.80818,128.07719" fill="none" stroke="#4080ff" stroke-width="2" stroke-dasharray="5,5"/>

  <!-- Layout rectangle (colored fill, solid border) -->
  <polygon points="474.3902431200841,49.074414132416166 240.08656867624475,141.84180140895495 235.30094949134394,129.7547070924077 469.6046239351833,36.9873198158689" fill="rgba(5, 150, 105, 0.15)" stroke="#059669" stroke-width="3"/>

  <!-- Centroid marker -->
  <circle cx="354.845596305714" cy="89.41456061241193" r="4" fill="#059669"/>
  <text x="362.845596305714" y="94.41456061241193" font-size="10" fill="#059669">boardroom</text>

  <!-- Corner markers -->

  <circle cx="474.3902431200841" cy="49.074414132416166" r="3" fill="#059669"/>
  <text x="480.3902431200841" y="53.074414132416166" font-size="8" fill="#059669">c0</text>
  <circle cx="240.08656867624475" cy="141.84180140895495" r="3" fill="#059669"/>
  <text x="246.08656867624475" y="145.84180140895495" font-size="8" fill="#059669">c1</text>
  <circle cx="235.30094949134394" cy="129.7547070924077" r="3" fill="#059669"/>
  <text x="241.30094949134394" y="133.7547070924077" font-size="8" fill="#059669">c2</text>
  <circle cx="469.6046239351833" cy="36.9873198158689" r="3" fill="#059669"/>
  <text x="475.6046239351833" y="40.9873198158689" font-size="8" fill="#059669">c3</text>

  <!-- Vertex markers -->

  <circle cx="234.81" cy="32.26" r="2" fill="#4080ff"/>
  <text x="226.81" y="26.259999999999998" font-size="8" fill="#4080ff">p0</text>
  <circle cx="350.97122" cy="32.255595" r="2" fill="#4080ff"/>
  <text x="342.97122" y="26.255595" font-size="8" fill="#4080ff">p1</text>
  <circle cx="458.19863" cy="32.255595" r="2" fill="#4080ff"/>
  <text x="450.19863" y="26.255595" font-size="8" fill="#4080ff">p2</text>
  <circle cx="478.05555999999996" cy="32.255595" r="2" fill="#4080ff"/>
  <text x="470.05555999999996" y="26.255595" font-size="8" fill="#4080ff">p3</text>
  <circle cx="478.05555999999996" cy="128.07719" r="2" fill="#4080ff"/>
  <text x="470.05555999999996" y="122.07719" font-size="8" fill="#4080ff">p4</text>
  <circle cx="458.19863" cy="128.07719" r="2" fill="#4080ff"/>
  <text x="450.19863" y="122.07719" font-size="8" fill="#4080ff">p5</text>
  <circle cx="458.19863" cy="147.93412" r="2" fill="#4080ff"/>
  <text x="450.19863" y="141.93412" font-size="8" fill="#4080ff">p6</text>
  <circle cx="350.97122" cy="147.93412" r="2" fill="#4080ff"/>
  <text x="342.97122" y="141.93412" font-size="8" fill="#4080ff">p7</text>
  <circle cx="234.80818" cy="147.93412" r="2" fill="#4080ff"/>
  <text x="226.80818" y="141.93412" font-size="8" fill="#4080ff">p8</text>
  <circle cx="234.80818" cy="128.07719" r="2" fill="#4080ff"/>
  <text x="226.80818" y="122.07719" font-size="8" fill="#4080ff">p9</text>

  <!-- Data Table (positioned to the right) -->
  <g transform="translate(498.05555999999996, 32.255595)">
    <rect x="0" y="0" width="320" height="160" fill="white" stroke="#ccc" stroke-width="1"/>
    <rect x="0" y="0" width="320" height="30" fill="#f0f0f0"/>
    <text x="160" y="20" font-size="14" font-weight="bold" text-anchor="middle">Boardroom Layout</text>

    <text x="10" y="50" font-size="11" font-weight="bold">Tables:</text>
    <text x="310" y="50" font-size="11" text-anchor="end">82 (41 sets)</text>

    <text x="10" y="70" font-size="11" font-weight="bold">Dimensions:</text>
    <text x="310" y="70" font-size="11" text-anchor="end">252.0 × 13.0 ft</text>

    <text x="10" y="90" font-size="11" font-weight="bold">Area:</text>
    <text x="310" y="90" font-size="11" text-anchor="end">3276.00 sq ft</text>

    <text x="10" y="110" font-size="11" font-weight="bold">Fill Ratio:</text>
    <text x="310" y="110" font-size="11" text-anchor="end">11.8%</text>

    <text x="10" y="130" font-size="11" font-weight="bold">Angle:</text>
    <text x="310" y="130" font-size="11" text-anchor="end">158.4°</text>

    <text x="10" y="150" font-size="11" font-weight="bold">Runtime:</text>
    <text x="310" y="150" font-size="11" text-anchor="end">406ms</text>
  </g>

  <!-- Area Data (embedded as XML comments for extraction) -->
  <!-- polygonArea: 27743.8574 -->
  <!-- layoutArea: 3276.00 -->
  <!-- fillRatio: 11.8 -->

</svg>