<?xml version="1.0" encoding="UTF-8"?>
<svg xmlns="http://www.w3.org/2000/svg"
     viewBox="330.97 12.255595 709.62623 180"
     width="709.62623" height="180"
     style="background: white;">

  <!-- Title -->
  <text x="350.97" y="52.255595" font-size="16" font-weight="bold" fill="#000">
    MaxInscribed_0033
  </text>

  <!-- Original test paths (gray, semi-transparent) -->
  <g opacity="0.3">
    <path id="Ballroom_Aisle_35" d="m 458.19863,32.255595 h 19.85693 l 0,95.821595 h -19.85693 z" fill="none" stroke="#808080" stroke-width="1"/>
    <path id="Ballroom_Room_3" d="m 458.19863,32.255595 0,95.821595 H 350.97122 V 32.255595 Z" fill="none" stroke="#808080" stroke-width="1"/>
    <path id="Ballroom_Room_5" d="m 680.59623,32.255595 0,95.821595 H 478.05556 V 32.255595 Z" fill="none" stroke="#808080" stroke-width="1"/>
  </g>

  <!-- Boundary polygon (blue, dashed) -->
  <polygon points="350.97,32.26 458.19863,32.255595 478.05556,32.255595 680.59623,32.255595 680.59623,128.07719 478.05556,128.07719 458.19863,128.07719 350.97122,128.07719" fill="none" stroke="#4080ff" stroke-width="2" stroke-dasharray="5,5"/>

  <!-- Layout rectangle (colored fill, solid border) -->
  <polygon points="350.97,32.26 680.5962300000002,32.255595 680.5975132338735,128.28000905392565 350.97128323387346,128.28441405392567" fill="rgba(220, 38, 38, 0.15)" stroke="#dc2626" stroke-width="3"/>

  <!-- Centroid marker -->
  <circle cx="515.7837566169369" cy="80.27000452696282" r="4" fill="#dc2626"/>
  <text x="523.7837566169369" y="85.27000452696282" font-size="10" fill="#dc2626">maxinscribed</text>

  <!-- Corner markers -->

  <circle cx="350.97" cy="32.26" r="3" fill="#dc2626"/>
  <text x="356.97" y="36.26" font-size="8" fill="#dc2626">c0</text>
  <circle cx="680.5962300000002" cy="32.255595" r="3" fill="#dc2626"/>
  <text x="686.5962300000002" y="36.255595" font-size="8" fill="#dc2626">c1</text>
  <circle cx="680.5975132338735" cy="128.28000905392565" r="3" fill="#dc2626"/>
  <text x="686.5975132338735" y="132.28000905392565" font-size="8" fill="#dc2626">c2</text>
  <circle cx="350.97128323387346" cy="128.28441405392567" r="3" fill="#dc2626"/>
  <text x="356.97128323387346" y="132.28441405392567" font-size="8" fill="#dc2626">c3</text>

  <!-- Vertex markers -->

  <circle cx="350.97" cy="32.26" r="2" fill="#4080ff"/>
  <text x="342.97" y="26.259999999999998" font-size="8" fill="#4080ff">p0</text>
  <circle cx="458.19863" cy="32.255595" r="2" fill="#4080ff"/>
  <text x="450.19863" y="26.255595" font-size="8" fill="#4080ff">p1</text>
  <circle cx="478.05556" cy="32.255595" r="2" fill="#4080ff"/>
  <text x="470.05556" y="26.255595" font-size="8" fill="#4080ff">p2</text>
  <circle cx="680.59623" cy="32.255595" r="2" fill="#4080ff"/>
  <text x="672.59623" y="26.255595" font-size="8" fill="#4080ff">p3</text>
  <circle cx="680.59623" cy="128.07719" r="2" fill="#4080ff"/>
  <text x="672.59623" y="122.07719" font-size="8" fill="#4080ff">p4</text>
  <circle cx="478.05556" cy="128.07719" r="2" fill="#4080ff"/>
  <text x="470.05556" y="122.07719" font-size="8" fill="#4080ff">p5</text>
  <circle cx="458.19863" cy="128.07719" r="2" fill="#4080ff"/>
  <text x="450.19863" y="122.07719" font-size="8" fill="#4080ff">p6</text>
  <circle cx="350.97122" cy="128.07719" r="2" fill="#4080ff"/>
  <text x="342.97122" y="122.07719" font-size="8" fill="#4080ff">p7</text>

  <!-- Data Table (positioned to the right) -->
  <g transform="translate(700.59623, 32.255595)">
    <rect x="0" y="0" width="320" height="200" fill="white" stroke="#ccc" stroke-width="1"/>
    <rect x="0" y="0" width="320" height="30" fill="#f0f0f0"/>
    <text x="160" y="20" font-size="14" font-weight="bold" text-anchor="middle">Max Inscribed Rectangle</text>

    <text x="10" y="50" font-size="11" font-weight="bold">Dimensions:</text>
    <text x="310" y="50" font-size="11" text-anchor="end">329.6 × 96.0 ft</text>

    <text x="10" y="70" font-size="11" font-weight="bold">Area:</text>
    <text x="310" y="70" font-size="11" text-anchor="end">31652.17 sq ft</text>

    <text x="10" y="90" font-size="11" font-weight="bold">Fill Ratio:</text>
    <text x="310" y="90" font-size="11" text-anchor="end">100.2%</text>

    <text x="10" y="110" font-size="11" font-weight="bold">Angle:</text>
    <text x="310" y="110" font-size="11" text-anchor="end">90.0°</text>

    <text x="10" y="130" font-size="11" font-weight="bold">Runtime:</text>
    <text x="310" y="130" font-size="11" text-anchor="end">14ms</text>

    <!-- Hybrid Algorithm Info -->
    <line x1="10" x2="310" y1="145" y2="145" stroke="#ccc" stroke-width="1"/>
    <text x="10" y="160" font-size="11" font-weight="bold">Algorithm Used:</text>
    <text x="310" y="160" font-size="11" text-anchor="end">boundary-based</text>

    <text x="10" y="180" font-size="10" fill="#666">Boundary: ✓ | Optimized: ✓</text>
  </g>

  <!-- Area Data (embedded as XML comments for extraction) -->
  <!-- polygonArea: 31585.0165 -->
  <!-- layoutArea: 31652.17 -->
  <!-- fillRatio: 100.2 -->

</svg>