<?xml version="1.0" encoding="UTF-8"?>
<svg xmlns="http://www.w3.org/2000/svg"
     viewBox="214.80818 12.255595 825.78805 308.576875"
     width="825.78805" height="308.576875"
     style="background: white;">

  <!-- Title -->
  <text x="234.80818" y="52.255595" font-size="16" font-weight="bold" fill="#000">
    MaxInscribed_0096
  </text>

  <!-- Original test paths (gray, semi-transparent) -->
  <g opacity="0.3">
    <path id="Ballroom_Aisle_35" d="m 458.19863,32.255595 h 19.85693 l 0,95.821595 h -19.85693 z" fill="none" stroke="#808080" stroke-width="1"/>
    <path id="Ballroom_Aisle_56" d="m 680.59623,128.07719 -5.95708,19.85693 H 478.05556 v -19.85693 z" fill="none" stroke="#808080" stroke-width="1"/>
    <path id="Ballroom_Room_1" d="M 350.97122,32.255595 V 128.07719 H 234.80818 V 32.255595 Z" fill="none" stroke="#808080" stroke-width="1"/>
    <path id="Ballroom_Room_3" d="m 458.19863,32.255595 0,95.821595 H 350.97122 V 32.255595 Z" fill="none" stroke="#808080" stroke-width="1"/>
    <path id="Ballroom_Room_5" d="m 680.59623,32.255595 0,95.821595 H 478.05556 V 32.255595 Z" fill="none" stroke="#808080" stroke-width="1"/>
    <path id="Ballroom_Room_Grand" d="m 674.63915,147.93412 c -13.77093,46.32866 -28.44265,94.4522 -41.69955,140.98419 l -31.77108,11.91416 C 559.50968,285.82798 528.19209,276.69667 478.05556,263.60073 V 147.93412 Z" fill="none" stroke="#808080" stroke-width="1"/>
  </g>

  <!-- Boundary polygon (blue, dashed) -->
  <polygon points="234.81,32.26 350.97122,32.255595 458.19863,32.255595 478.05556,32.255595 680.59623,32.255595 680.59623,128.07719 674.63915,147.93412 632.9395999999999,288.91831 601.16852,300.83247 478.05556,263.60073 478.05556,147.93412 478.05556,128.07719 458.19863,128.07719 350.97122,128.07719 234.80818,128.07719" fill="none" stroke="#4080ff" stroke-width="2" stroke-dasharray="5,5"/>

  <!-- Layout rectangle (colored fill, solid border) -->
  <polygon points="234.81000000000003,32.25999999999998 680.5962300000001,32.25559499999997 680.597178857357,128.28000905781192 234.8109488573569,128.28441405781194" fill="rgba(220, 38, 38, 0.15)" stroke="#dc2626" stroke-width="3"/>

  <!-- Centroid marker -->
  <circle cx="457.70358942867847" cy="80.27000452890596" r="4" fill="#dc2626"/>
  <text x="465.70358942867847" y="85.27000452890596" font-size="10" fill="#dc2626">maxinscribed</text>

  <!-- Corner markers -->

  <circle cx="234.81000000000003" cy="32.25999999999998" r="3" fill="#dc2626"/>
  <text x="240.81000000000003" y="36.25999999999998" font-size="8" fill="#dc2626">c0</text>
  <circle cx="680.5962300000001" cy="32.25559499999997" r="3" fill="#dc2626"/>
  <text x="686.5962300000001" y="36.25559499999997" font-size="8" fill="#dc2626">c1</text>
  <circle cx="680.597178857357" cy="128.28000905781192" r="3" fill="#dc2626"/>
  <text x="686.597178857357" y="132.28000905781192" font-size="8" fill="#dc2626">c2</text>
  <circle cx="234.8109488573569" cy="128.28441405781194" r="3" fill="#dc2626"/>
  <text x="240.8109488573569" y="132.28441405781194" font-size="8" fill="#dc2626">c3</text>

  <!-- Vertex markers -->

  <circle cx="234.81" cy="32.26" r="2" fill="#4080ff"/>
  <text x="226.81" y="26.259999999999998" font-size="8" fill="#4080ff">p0</text>
  <circle cx="350.97122" cy="32.255595" r="2" fill="#4080ff"/>
  <text x="342.97122" y="26.255595" font-size="8" fill="#4080ff">p1</text>
  <circle cx="458.19863" cy="32.255595" r="2" fill="#4080ff"/>
  <text x="450.19863" y="26.255595" font-size="8" fill="#4080ff">p2</text>
  <circle cx="478.05556" cy="32.255595" r="2" fill="#4080ff"/>
  <text x="470.05556" y="26.255595" font-size="8" fill="#4080ff">p3</text>
  <circle cx="680.59623" cy="32.255595" r="2" fill="#4080ff"/>
  <text x="672.59623" y="26.255595" font-size="8" fill="#4080ff">p4</text>
  <circle cx="680.59623" cy="128.07719" r="2" fill="#4080ff"/>
  <text x="672.59623" y="122.07719" font-size="8" fill="#4080ff">p5</text>
  <circle cx="674.63915" cy="147.93412" r="2" fill="#4080ff"/>
  <text x="666.63915" y="141.93412" font-size="8" fill="#4080ff">p6</text>
  <circle cx="632.9395999999999" cy="288.91831" r="2" fill="#4080ff"/>
  <text x="624.9395999999999" y="282.91831" font-size="8" fill="#4080ff">p7</text>
  <circle cx="601.16852" cy="300.83247" r="2" fill="#4080ff"/>
  <text x="593.16852" y="294.83247" font-size="8" fill="#4080ff">p8</text>
  <circle cx="478.05556" cy="263.60073" r="2" fill="#4080ff"/>
  <text x="470.05556" y="257.60073" font-size="8" fill="#4080ff">p9</text>
  <circle cx="478.05556" cy="147.93412" r="2" fill="#4080ff"/>
  <text x="470.05556" y="141.93412" font-size="8" fill="#4080ff">p10</text>
  <circle cx="478.05556" cy="128.07719" r="2" fill="#4080ff"/>
  <text x="470.05556" y="122.07719" font-size="8" fill="#4080ff">p11</text>
  <circle cx="458.19863" cy="128.07719" r="2" fill="#4080ff"/>
  <text x="450.19863" y="122.07719" font-size="8" fill="#4080ff">p12</text>
  <circle cx="350.97122" cy="128.07719" r="2" fill="#4080ff"/>
  <text x="342.97122" y="122.07719" font-size="8" fill="#4080ff">p13</text>
  <circle cx="234.80818" cy="128.07719" r="2" fill="#4080ff"/>
  <text x="226.80818" y="122.07719" font-size="8" fill="#4080ff">p14</text>

  <!-- Data Table (positioned to the right) -->
  <g transform="translate(700.59623, 32.255595)">
    <rect x="0" y="0" width="320" height="200" fill="white" stroke="#ccc" stroke-width="1"/>
    <rect x="0" y="0" width="320" height="30" fill="#f0f0f0"/>
    <text x="160" y="20" font-size="14" font-weight="bold" text-anchor="middle">Max Inscribed Rectangle</text>

    <text x="10" y="50" font-size="11" font-weight="bold">Dimensions:</text>
    <text x="310" y="50" font-size="11" text-anchor="end">445.8 × 96.0 ft</text>

    <text x="10" y="70" font-size="11" font-weight="bold">Area:</text>
    <text x="310" y="70" font-size="11" text-anchor="end">42806.36 sq ft</text>

    <text x="10" y="90" font-size="11" font-weight="bold">Fill Ratio:</text>
    <text x="310" y="90" font-size="11" text-anchor="end">60.4%</text>

    <text x="10" y="110" font-size="11" font-weight="bold">Angle:</text>
    <text x="310" y="110" font-size="11" text-anchor="end">144.5°</text>

    <text x="10" y="130" font-size="11" font-weight="bold">Runtime:</text>
    <text x="310" y="130" font-size="11" text-anchor="end">5.01s</text>

    <!-- Hybrid Algorithm Info -->
    <line x1="10" x2="310" y1="145" y2="145" stroke="#ccc" stroke-width="1"/>
    <text x="10" y="160" font-size="11" font-weight="bold">Algorithm Used:</text>
    <text x="310" y="160" font-size="11" text-anchor="end">boundary-based</text>

    <text x="10" y="180" font-size="10" fill="#666">Boundary: ✓ | Optimized: ✓</text>
  </g>

  <!-- Area Data (embedded as XML comments for extraction) -->
  <!-- polygonArea: 70818.3553 -->
  <!-- layoutArea: 42806.36 -->
  <!-- fillRatio: 60.4 -->

</svg>