<?xml version="1.0" encoding="UTF-8"?>
<svg xmlns="http://www.w3.org/2000/svg" viewBox="305.23 -12.148840999999997 484.37256 550.748821" width="484.37256" height="550.748821">
  <title>Combo_0118</title>

  <!-- White Background -->
  <rect x="305.23" y="-12.148840999999997" width="484.37256" height="550.748821" fill="white"/>

  <!-- Test Paths -->
  <g opacity="0.3">
    <path id="Ballroom_Room_3" d="M 534.97264,79.848231 497.44281,168.01449 398.78196,126.01742 436.31179,37.851159 Z" fill="none" stroke="#808080" stroke-width="1"/>
    <path id="Ballroom_Room_4" d="m 489.66557,186.28502 -43.55252,102.31496 c -32.57907,-23.40199 -58.18422,-41.61094 -90.88361,-60.2676 l 35.77528,-84.04443 z" fill="none" stroke="#808080" stroke-width="1"/>
    <path id="Ballroom_Room_5" d="M 739.60256,166.95328 702.07273,255.11954 515.71334,175.79173 553.24317,87.625471 Z" fill="none" stroke="#808080" stroke-width="1"/>
    <path id="Ballroom_Aisle_34" d="m 497.44281,168.01449 -7.77724,18.27053 -98.66085,-41.99707 7.77724,-18.27053 z" fill="none" stroke="#808080" stroke-width="1"/>
    <path id="Ballroom_Aisle_35" d="m 534.97264,79.848231 18.27053,7.77724 -37.52983,88.166259 -18.27053,-7.77724 z" fill="none" stroke="#808080" stroke-width="1"/>
    <path id="Ballroom_Crossing_3456" d="m 515.71334,175.79173 -7.77724,18.27053 -18.27053,-7.77724 7.77724,-18.27053 z" fill="none" stroke="#808080" stroke-width="1"/>
  </g>

  <!-- Boundary Polygon (outer boundary) -->
  <polygon points="355.23,228.33 436.31179,37.851159 739.60256,166.95328 702.07273,255.11954 515.71334,175.79173 507.9361,194.06226 489.66557,186.28502 446.11305,288.59998"
           fill="rgba(100, 150, 255, 0.2)"
           stroke="#4080ff"
           stroke-width="1"
           stroke-dasharray="5,5"/>

  
  <!-- Boundary-Based Rectangle -->
  <polygon points="436.31179,37.851159 739.60256,166.95328 701.9932917221496,255.30615791380154 398.7025217221495,126.20403691380153"
           fill="rgba(255, 100, 100, 0.25)"
           stroke="#ff4040"
           stroke-width="2"
           stroke-dasharray="none"/>

  <!-- Boundary-Based Centroid -->
  <circle cx="569.1525408610747" cy="146.57865845690077" r="4" fill="#ff0000"/>
  <text x="577.1525408610747" y="138.57865845690077" font-size="8" fill="#ff0000">boundary</text>

  <!-- Boundary-Based Corners -->
  
  <circle cx="436.31179" cy="37.851159" r="3" fill="#ff4040"/>
  <text x="421.31179" y="52.851159" font-size="8" fill="#ff4040">b0</text>
  <circle cx="739.60256" cy="166.95328" r="3" fill="#ff4040"/>
  <text x="724.60256" y="181.95328" font-size="8" fill="#ff4040">b1</text>
  <circle cx="701.9932917221496" cy="255.30615791380154" r="3" fill="#ff4040"/>
  <text x="686.9932917221496" y="270.30615791380154" font-size="8" fill="#ff4040">b2</text>
  <circle cx="398.7025217221495" cy="126.20403691380153" r="3" fill="#ff4040"/>
  <text x="383.7025217221495" y="141.20403691380153" font-size="8" fill="#ff4040">b3</text>

  <!-- Optimized Rectangle -->
  <polygon points="436.31179,37.851159 739.60256,166.95328 701.9932917221496,255.30615791380154 398.7025217221495,126.20403691380153"
           fill="rgba(100, 255, 100, 0.25)"
           stroke="#40ff40"
           stroke-width="2"
           stroke-dasharray="5,5"/>

  <!-- Optimized Centroid -->
  <circle cx="569.1525408610747" cy="146.57865845690077" r="4" fill="#00aa00"/>
  <text x="577.1525408610747" y="138.57865845690077" font-size="8" fill="#00aa00">optimized</text>

  <!-- Optimized Corners -->
  
  <circle cx="436.31179" cy="37.851159" r="3" fill="#40ff40"/>
  <text x="446.31179" y="37.851159" font-size="8" fill="#00aa00">o0</text>
  <circle cx="739.60256" cy="166.95328" r="3" fill="#40ff40"/>
  <text x="749.60256" y="166.95328" font-size="8" fill="#00aa00">o1</text>
  <circle cx="701.9932917221496" cy="255.30615791380154" r="3" fill="#40ff40"/>
  <text x="711.9932917221496" y="255.30615791380154" font-size="8" fill="#00aa00">o2</text>
  <circle cx="398.7025217221495" cy="126.20403691380153" r="3" fill="#40ff40"/>
  <text x="408.7025217221495" y="126.20403691380153" font-size="8" fill="#00aa00">o3</text>


  <!-- Boundary Vertices -->
  
  <circle cx="355.23" cy="228.33" r="3" fill="#4080ff"/>
  <text x="361.23" y="222.33" font-size="8" fill="#4080ff">p0</text>
  <circle cx="436.31179" cy="37.851159" r="3" fill="#4080ff"/>
  <text x="442.31179" y="31.851159000000003" font-size="8" fill="#4080ff">p1</text>
  <circle cx="739.60256" cy="166.95328" r="3" fill="#4080ff"/>
  <text x="745.60256" y="160.95328" font-size="8" fill="#4080ff">p2</text>
  <circle cx="702.07273" cy="255.11954" r="3" fill="#4080ff"/>
  <text x="708.07273" y="249.11954" font-size="8" fill="#4080ff">p3</text>
  <circle cx="515.71334" cy="175.79173" r="3" fill="#4080ff"/>
  <text x="521.71334" y="169.79173" font-size="8" fill="#4080ff">p4</text>
  <circle cx="507.9361" cy="194.06226" r="3" fill="#4080ff"/>
  <text x="513.9361" y="188.06226" font-size="8" fill="#4080ff">p5</text>
  <circle cx="489.66557" cy="186.28502" r="3" fill="#4080ff"/>
  <text x="495.66557" y="180.28502" font-size="8" fill="#4080ff">p6</text>
  <circle cx="446.11305" cy="288.59998" r="3" fill="#4080ff"/>
  <text x="452.11305" y="282.59998" font-size="8" fill="#4080ff">p7</text>

  
  <!-- Title -->
  <text x="315.23" y="348.59998" font-size="14" font-weight="bold">Combo_0118 - Algorithm Comparison</text>

  <!-- Combinations Key -->
  <text x="315.23" y="368.59998" font-size="9" fill="#666">Paths: Ballroom_Room_3 + Ballroom_Room_4 + Ballroom_Room_5 + Ballroom_Aisle_34 + Ballroom_Aisle_35 + Ballroom_Crossing_3456</text>

  <!-- Table Header Background -->
  <rect x="315.23" y="388.59998" width="300" height="20" fill="#f0f0f0" stroke="#333" stroke-width="1"/>

  <!-- Table Header -->
  <text x="325.23" y="402.59998" font-size="9" font-weight="bold">Algo</text>
  <text x="385.23" y="402.59998" font-size="9" font-weight="bold">Area</text>
  <text x="465.23" y="402.59998" font-size="9" font-weight="bold">Time</text>
  <text x="545.23" y="402.59998" font-size="9" font-weight="bold">Status</text>

  <!-- Boundary-Based Row -->
  <rect x="315.23" y="408.59998" width="300" height="18" fill="rgba(255, 100, 100, 0.15)" stroke="#333" stroke-width="1"/>
  <circle cx="330.23" cy="417.59998" r="3" fill="#ff4040"/>
  <text x="338.23" y="420.59998" font-size="8" fill="#ff4040">BB</text>
  <text x="385.23" y="420.59998" font-size="8">31652.0</text>
  <text x="465.23" y="420.59998" font-size="8">0.7 ms</text>
  <text x="545.23" y="420.59998" font-size="8" fill="#008800">✓</text>

  <!-- Optimized Row -->
  <rect x="315.23" y="426.59998" width="300" height="18" fill="white" stroke="#333" stroke-width="1"/>
  <circle cx="330.23" cy="435.59998" r="3" fill="#40ff40"/>
  <text x="338.23" y="438.59998" font-size="8" fill="#00aa00">Opt</text>
  <text x="385.23" y="438.59998" font-size="8">31652.0</text>
  <text x="465.23" y="438.59998" font-size="8">1884.5 ms</text>
  <text x="545.23" y="438.59998" font-size="8" fill="#666"></text>

  <!-- Summary Row -->
  <rect x="315.23" y="444.59998" width="300" height="18" fill="#f8f8f8" stroke="#333" stroke-width="1"/>
  <text x="325.23" y="456.59998" font-size="8" font-weight="bold">Diff:</text>
  <text x="385.23" y="456.59998" font-size="8">0.0 (0.0%)</text>

</svg>