<?xml version="1.0" encoding="UTF-8"?>
<svg xmlns="http://www.w3.org/2000/svg" viewBox="234.12 -57.645677 504.69433000000004 692.0911269999999" width="504.69433000000004" height="692.0911269999999">
  <title>Combo_0148</title>

  <!-- White Background -->
  <rect x="234.12" y="-57.645677" width="504.69433000000004" height="692.0911269999999" fill="white"/>

  <!-- Test Paths -->
  <g opacity="0.3">
    <path id="Ballroom_Room_1" d="M 436.31179,37.851159 398.78196,126.01742 291.89936,80.520581 329.42919,-7.645677 Z" fill="none" stroke="#808080" stroke-width="1"/>
    <path id="Ballroom_Room_3" d="M 534.97264,79.848231 497.44281,168.01449 398.78196,126.01742 436.31179,37.851159 Z" fill="none" stroke="#808080" stroke-width="1"/>
    <path id="Ballroom_Room_4" d="m 489.66557,186.28502 -43.55252,102.31496 c -32.57907,-23.40199 -58.18422,-41.61094 -90.88361,-60.2676 l 35.77528,-84.04443 z" fill="none" stroke="#808080" stroke-width="1"/>
    <path id="Ballroom_Room_Grand" d="m 688.81433,271.0569 c -30.816,37.23382 -63.16381,75.76632 -93.58649,113.38855 L 561.32866,382.9642 C 528.87472,352.84219 503.63554,332.17443 462.6337,300.48809 l 45.3024,-106.42583 z" fill="none" stroke="#808080" stroke-width="1"/>
    <path id="Ballroom_Aisle_12" d="m 398.78196,126.01742 -7.77724,18.27053 -106.88259,-45.496839 7.77723,-18.27053 z" fill="none" stroke="#808080" stroke-width="1"/>
    <path id="Ballroom_Aisle_34" d="m 497.44281,168.01449 -7.77724,18.27053 -98.66085,-41.99707 7.77724,-18.27053 z" fill="none" stroke="#808080" stroke-width="1"/>
    <path id="Ballroom_Aisle_46" d="m 489.66557,186.28502 18.27053,7.77724 -45.3024,106.42583 -16.52065,-11.88811 z" fill="none" stroke="#808080" stroke-width="1"/>
    <path id="Ballroom_Crossing_3456" d="m 515.71334,175.79173 -7.77724,18.27053 -18.27053,-7.77724 7.77724,-18.27053 z" fill="none" stroke="#808080" stroke-width="1"/>
  </g>

  <!-- Boundary Polygon (outer boundary) -->
  <polygon points="284.12,98.79 291.89936,80.52058099999999 329.42919,-7.645677 534.97264,79.848231 497.44281,168.01449 515.71334,175.79173 507.9361,194.06226 688.81433,271.0569 595.22784,384.44545 561.32866,382.9642 462.6337,300.48809 446.11305000000004,288.59998 355.22943999999995,228.33238 391.00472,144.28795"
           fill="rgba(100, 150, 255, 0.2)"
           stroke="#4080ff"
           stroke-width="1"
           stroke-dasharray="5,5"/>

  
  <!-- Boundary-Based Rectangle -->
  <polygon points="355.22943999999995,228.33238 391.00471999999996,144.28794999999997 664.0873542012193,260.5313191523186 628.3120742012193,344.5757491523186"
           fill="rgba(255, 100, 100, 0.25)"
           stroke="#ff4040"
           stroke-width="2"
           stroke-dasharray="none"/>

  <!-- Boundary-Based Centroid -->
  <circle cx="509.65839710060965" cy="244.4318495761593" r="4" fill="#ff0000"/>
  <text x="517.6583971006096" y="236.4318495761593" font-size="8" fill="#ff0000">boundary</text>

  <!-- Boundary-Based Corners -->
  
  <circle cx="355.22943999999995" cy="228.33238" r="3" fill="#ff4040"/>
  <text x="340.22943999999995" y="243.33238" font-size="8" fill="#ff4040">b0</text>
  <circle cx="391.00471999999996" cy="144.28794999999997" r="3" fill="#ff4040"/>
  <text x="376.00471999999996" y="159.28794999999997" font-size="8" fill="#ff4040">b1</text>
  <circle cx="664.0873542012193" cy="260.5313191523186" r="3" fill="#ff4040"/>
  <text x="649.0873542012193" y="275.5313191523186" font-size="8" fill="#ff4040">b2</text>
  <circle cx="628.3120742012193" cy="344.5757491523186" r="3" fill="#ff4040"/>
  <text x="613.3120742012193" y="359.5757491523186" font-size="8" fill="#ff4040">b3</text>

  <!-- Optimized Rectangle -->
  <polygon points="355.22943999999995,228.33238 391.00471999999996,144.28794999999997 664.0873542012193,260.5313191523186 628.3120742012193,344.5757491523186"
           fill="rgba(100, 255, 100, 0.25)"
           stroke="#40ff40"
           stroke-width="2"
           stroke-dasharray="5,5"/>

  <!-- Optimized Centroid -->
  <circle cx="509.65839710060965" cy="244.4318495761593" r="4" fill="#00aa00"/>
  <text x="517.6583971006096" y="236.4318495761593" font-size="8" fill="#00aa00">optimized</text>

  <!-- Optimized Corners -->
  
  <circle cx="355.22943999999995" cy="228.33238" r="3" fill="#40ff40"/>
  <text x="365.22943999999995" y="228.33238" font-size="8" fill="#00aa00">o0</text>
  <circle cx="391.00471999999996" cy="144.28794999999997" r="3" fill="#40ff40"/>
  <text x="401.00471999999996" y="144.28794999999997" font-size="8" fill="#00aa00">o1</text>
  <circle cx="664.0873542012193" cy="260.5313191523186" r="3" fill="#40ff40"/>
  <text x="674.0873542012193" y="260.5313191523186" font-size="8" fill="#00aa00">o2</text>
  <circle cx="628.3120742012193" cy="344.5757491523186" r="3" fill="#40ff40"/>
  <text x="638.3120742012193" y="344.5757491523186" font-size="8" fill="#00aa00">o3</text>


  <!-- Boundary Vertices -->
  
  <circle cx="284.12" cy="98.79" r="3" fill="#4080ff"/>
  <text x="290.12" y="92.79" font-size="8" fill="#4080ff">p0</text>
  <circle cx="291.89936" cy="80.52058099999999" r="3" fill="#4080ff"/>
  <text x="297.89936" y="74.52058099999999" font-size="8" fill="#4080ff">p1</text>
  <circle cx="329.42919" cy="-7.645677" r="3" fill="#4080ff"/>
  <text x="335.42919" y="-13.645677" font-size="8" fill="#4080ff">p2</text>
  <circle cx="534.97264" cy="79.848231" r="3" fill="#4080ff"/>
  <text x="540.97264" y="73.848231" font-size="8" fill="#4080ff">p3</text>
  <circle cx="497.44281" cy="168.01449" r="3" fill="#4080ff"/>
  <text x="503.44281" y="162.01449" font-size="8" fill="#4080ff">p4</text>
  <circle cx="515.71334" cy="175.79173" r="3" fill="#4080ff"/>
  <text x="521.71334" y="169.79173" font-size="8" fill="#4080ff">p5</text>
  <circle cx="507.9361" cy="194.06226" r="3" fill="#4080ff"/>
  <text x="513.9361" y="188.06226" font-size="8" fill="#4080ff">p6</text>
  <circle cx="688.81433" cy="271.0569" r="3" fill="#4080ff"/>
  <text x="694.81433" y="265.0569" font-size="8" fill="#4080ff">p7</text>
  <circle cx="595.22784" cy="384.44545" r="3" fill="#4080ff"/>
  <text x="601.22784" y="378.44545" font-size="8" fill="#4080ff">p8</text>
  <circle cx="561.32866" cy="382.9642" r="3" fill="#4080ff"/>
  <text x="567.32866" y="376.9642" font-size="8" fill="#4080ff">p9</text>
  <circle cx="462.6337" cy="300.48809" r="3" fill="#4080ff"/>
  <text x="468.6337" y="294.48809" font-size="8" fill="#4080ff">p10</text>
  <circle cx="446.11305000000004" cy="288.59998" r="3" fill="#4080ff"/>
  <text x="452.11305000000004" y="282.59998" font-size="8" fill="#4080ff">p11</text>
  <circle cx="355.22943999999995" cy="228.33238" r="3" fill="#4080ff"/>
  <text x="361.22943999999995" y="222.33238" font-size="8" fill="#4080ff">p12</text>
  <circle cx="391.00472" cy="144.28795" r="3" fill="#4080ff"/>
  <text x="397.00472" y="138.28795" font-size="8" fill="#4080ff">p13</text>

  
  <!-- Title -->
  <text x="244.12" y="444.44545" font-size="14" font-weight="bold">Combo_0148 - Algorithm Comparison</text>

  <!-- Combinations Key -->
  <text x="244.12" y="464.44545" font-size="9" fill="#666">Paths: Ballroom_Room_1 + Ballroom_Room_3 + Ballroom_Room_4 + Ballroom_Room_Grand + Ballroom_Aisle_12 + Ballroom_Aisle_34 + Ballroom_Aisle_46 + Ballroom_Crossing_3456</text>

  <!-- Table Header Background -->
  <rect x="244.12" y="484.44545" width="300" height="20" fill="#f0f0f0" stroke="#333" stroke-width="1"/>

  <!-- Table Header -->
  <text x="254.12" y="498.44545" font-size="9" font-weight="bold">Algo</text>
  <text x="314.12" y="498.44545" font-size="9" font-weight="bold">Area</text>
  <text x="394.12" y="498.44545" font-size="9" font-weight="bold">Time</text>
  <text x="474.12" y="498.44545" font-size="9" font-weight="bold">Status</text>

  <!-- Boundary-Based Row -->
  <rect x="244.12" y="504.44545" width="300" height="18" fill="rgba(255, 100, 100, 0.15)" stroke="#333" stroke-width="1"/>
  <circle cx="259.12" cy="513.4454499999999" r="3" fill="#ff4040"/>
  <text x="267.12" y="516.4454499999999" font-size="8" fill="#ff4040">BB</text>
  <text x="314.12" y="516.4454499999999" font-size="8">27109.7</text>
  <text x="394.12" y="516.4454499999999" font-size="8">2.9 ms</text>
  <text x="474.12" y="516.4454499999999" font-size="8" fill="#008800">✓</text>

  <!-- Optimized Row -->
  <rect x="244.12" y="522.4454499999999" width="300" height="18" fill="white" stroke="#333" stroke-width="1"/>
  <circle cx="259.12" cy="531.4454499999999" r="3" fill="#40ff40"/>
  <text x="267.12" y="534.4454499999999" font-size="8" fill="#00aa00">Opt</text>
  <text x="314.12" y="534.4454499999999" font-size="8">27109.7</text>
  <text x="394.12" y="534.4454499999999" font-size="8">3286.7 ms</text>
  <text x="474.12" y="534.4454499999999" font-size="8" fill="#666"></text>

  <!-- Summary Row -->
  <rect x="244.12" y="540.4454499999999" width="300" height="18" fill="#f8f8f8" stroke="#333" stroke-width="1"/>
  <text x="254.12" y="552.4454499999999" font-size="8" font-weight="bold">Diff:</text>
  <text x="314.12" y="552.4454499999999" font-size="8">0.0 (0.0%)</text>

</svg>