<?xml version="1.0" encoding="UTF-8"?>
<svg xmlns="http://www.w3.org/2000/svg" viewBox="203.6 -57.645677 535.21433 692.0911269999999" width="535.21433" height="692.0911269999999">
  <title>Combo_0087</title>

  <!-- White Background -->
  <rect x="203.6" y="-57.645677" width="535.21433" height="692.0911269999999" fill="white"/>

  <!-- Test Paths -->
  <g opacity="0.3">
    <path id="Ballroom_Room_1" d="M 436.31179,37.851159 398.78196,126.01742 291.89936,80.520581 329.42919,-7.645677 Z" fill="none" stroke="#808080" stroke-width="1"/>
    <path id="Ballroom_Room_2" d="m 391.00472,144.28795 -35.77528,84.04443 c -34.2969,-22.91885 -65.91518,-40.77971 -101.63219,-57.83127 l 30.52488,-71.709999 z" fill="none" stroke="#808080" stroke-width="1"/>
    <path id="Ballroom_Room_3" d="M 534.97264,79.848231 497.44281,168.01449 398.78196,126.01742 436.31179,37.851159 Z" fill="none" stroke="#808080" stroke-width="1"/>
    <path id="Ballroom_Room_4" d="m 489.66557,186.28502 -43.55252,102.31496 c -32.57907,-23.40199 -58.18422,-41.61094 -90.88361,-60.2676 l 35.77528,-84.04443 z" fill="none" stroke="#808080" stroke-width="1"/>
    <path id="Ballroom_Room_Grand" d="m 688.81433,271.0569 c -30.816,37.23382 -63.16381,75.76632 -93.58649,113.38855 L 561.32866,382.9642 C 528.87472,352.84219 503.63554,332.17443 462.6337,300.48809 l 45.3024,-106.42583 z" fill="none" stroke="#808080" stroke-width="1"/>
    <path id="Ballroom_Aisle_12" d="m 398.78196,126.01742 -7.77724,18.27053 -106.88259,-45.496839 7.77723,-18.27053 z" fill="none" stroke="#808080" stroke-width="1"/>
    <path id="Ballroom_Aisle_34" d="m 497.44281,168.01449 -7.77724,18.27053 -98.66085,-41.99707 7.77724,-18.27053 z" fill="none" stroke="#808080" stroke-width="1"/>
    <path id="Ballroom_Aisle_46" d="m 489.66557,186.28502 18.27053,7.77724 -45.3024,106.42583 -16.52065,-11.88811 z" fill="none" stroke="#808080" stroke-width="1"/>
  </g>

  <!-- Boundary Polygon (outer boundary) -->
  <polygon points="253.6,170.5 329.42919,-7.645677 534.97264,79.848231 489.66557,186.28502 688.81433,271.0569 595.22784,384.44545 561.32866,382.9642 462.6337,300.48809 446.11305000000004,288.59998 355.22943999999995,228.33238"
           fill="rgba(100, 150, 255, 0.2)"
           stroke="#4080ff"
           stroke-width="1"
           stroke-dasharray="5,5"/>

  
  <!-- Boundary-Based Rectangle -->
  <polygon points="329.42919,-7.645676999999999 534.97264,79.84823100000001 459.000611498432,258.32411804930877 253.45716149843201,170.83021004930873"
           fill="rgba(255, 100, 100, 0.25)"
           stroke="#ff4040"
           stroke-width="2"
           stroke-dasharray="none"/>

  <!-- Boundary-Based Centroid -->
  <circle cx="394.214900749216" cy="125.33922052465438" r="4" fill="#ff0000"/>
  <text x="402.214900749216" y="117.33922052465438" font-size="8" fill="#ff0000">boundary</text>

  <!-- Boundary-Based Corners -->
  
  <circle cx="329.42919" cy="-7.645676999999999" r="3" fill="#ff4040"/>
  <text x="314.42919" y="7.354323000000001" font-size="8" fill="#ff4040">b0</text>
  <circle cx="534.97264" cy="79.84823100000001" r="3" fill="#ff4040"/>
  <text x="519.97264" y="94.84823100000001" font-size="8" fill="#ff4040">b1</text>
  <circle cx="459.000611498432" cy="258.32411804930877" r="3" fill="#ff4040"/>
  <text x="444.000611498432" y="273.32411804930877" font-size="8" fill="#ff4040">b2</text>
  <circle cx="253.45716149843201" cy="170.83021004930873" r="3" fill="#ff4040"/>
  <text x="238.45716149843201" y="185.83021004930873" font-size="8" fill="#ff4040">b3</text>

  <!-- Optimized Rectangle -->
  <polygon points="329.42919,-7.645676999999999 534.97264,79.84823100000001 459.000611498432,258.32411804930877 253.45716149843201,170.83021004930873"
           fill="rgba(100, 255, 100, 0.25)"
           stroke="#40ff40"
           stroke-width="2"
           stroke-dasharray="5,5"/>

  <!-- Optimized Centroid -->
  <circle cx="394.214900749216" cy="125.33922052465438" r="4" fill="#00aa00"/>
  <text x="402.214900749216" y="117.33922052465438" font-size="8" fill="#00aa00">optimized</text>

  <!-- Optimized Corners -->
  
  <circle cx="329.42919" cy="-7.645676999999999" r="3" fill="#40ff40"/>
  <text x="339.42919" y="-7.645676999999999" font-size="8" fill="#00aa00">o0</text>
  <circle cx="534.97264" cy="79.84823100000001" r="3" fill="#40ff40"/>
  <text x="544.97264" y="79.84823100000001" font-size="8" fill="#00aa00">o1</text>
  <circle cx="459.000611498432" cy="258.32411804930877" r="3" fill="#40ff40"/>
  <text x="469.000611498432" y="258.32411804930877" font-size="8" fill="#00aa00">o2</text>
  <circle cx="253.45716149843201" cy="170.83021004930873" r="3" fill="#40ff40"/>
  <text x="263.457161498432" y="170.83021004930873" font-size="8" fill="#00aa00">o3</text>


  <!-- Boundary Vertices -->
  
  <circle cx="253.6" cy="170.5" r="3" fill="#4080ff"/>
  <text x="259.6" y="164.5" font-size="8" fill="#4080ff">p0</text>
  <circle cx="329.42919" cy="-7.645677" r="3" fill="#4080ff"/>
  <text x="335.42919" y="-13.645677" font-size="8" fill="#4080ff">p1</text>
  <circle cx="534.97264" cy="79.848231" r="3" fill="#4080ff"/>
  <text x="540.97264" y="73.848231" font-size="8" fill="#4080ff">p2</text>
  <circle cx="489.66557" cy="186.28502" r="3" fill="#4080ff"/>
  <text x="495.66557" y="180.28502" font-size="8" fill="#4080ff">p3</text>
  <circle cx="688.81433" cy="271.0569" r="3" fill="#4080ff"/>
  <text x="694.81433" y="265.0569" font-size="8" fill="#4080ff">p4</text>
  <circle cx="595.22784" cy="384.44545" r="3" fill="#4080ff"/>
  <text x="601.22784" y="378.44545" font-size="8" fill="#4080ff">p5</text>
  <circle cx="561.32866" cy="382.9642" r="3" fill="#4080ff"/>
  <text x="567.32866" y="376.9642" font-size="8" fill="#4080ff">p6</text>
  <circle cx="462.6337" cy="300.48809" r="3" fill="#4080ff"/>
  <text x="468.6337" y="294.48809" font-size="8" fill="#4080ff">p7</text>
  <circle cx="446.11305000000004" cy="288.59998" r="3" fill="#4080ff"/>
  <text x="452.11305000000004" y="282.59998" font-size="8" fill="#4080ff">p8</text>
  <circle cx="355.22943999999995" cy="228.33238" r="3" fill="#4080ff"/>
  <text x="361.22943999999995" y="222.33238" font-size="8" fill="#4080ff">p9</text>

  
  <!-- Title -->
  <text x="213.6" y="444.44545" font-size="14" font-weight="bold">Combo_0087 - Algorithm Comparison</text>

  <!-- Combinations Key -->
  <text x="213.6" y="464.44545" font-size="9" fill="#666">Paths: Ballroom_Room_1 + Ballroom_Room_2 + Ballroom_Room_3 + Ballroom_Room_4 + Ballroom_Room_Grand + Ballroom_Aisle_12 + Ballroom_Aisle_34 + Ballroom_Aisle_46</text>

  <!-- Table Header Background -->
  <rect x="213.6" y="484.44545" width="300" height="20" fill="#f0f0f0" stroke="#333" stroke-width="1"/>

  <!-- Table Header -->
  <text x="223.6" y="498.44545" font-size="9" font-weight="bold">Algo</text>
  <text x="283.6" y="498.44545" font-size="9" font-weight="bold">Area</text>
  <text x="363.6" y="498.44545" font-size="9" font-weight="bold">Time</text>
  <text x="443.6" y="498.44545" font-size="9" font-weight="bold">Status</text>

  <!-- Boundary-Based Row -->
  <rect x="213.6" y="504.44545" width="300" height="18" fill="rgba(255, 100, 100, 0.15)" stroke="#333" stroke-width="1"/>
  <circle cx="228.6" cy="513.4454499999999" r="3" fill="#ff4040"/>
  <text x="236.6" y="516.4454499999999" font-size="8" fill="#ff4040">BB</text>
  <text x="283.6" y="516.4454499999999" font-size="8">43331.6</text>
  <text x="363.6" y="516.4454499999999" font-size="8">1.5 ms</text>
  <text x="443.6" y="516.4454499999999" font-size="8" fill="#008800">✓</text>

  <!-- Optimized Row -->
  <rect x="213.6" y="522.4454499999999" width="300" height="18" fill="white" stroke="#333" stroke-width="1"/>
  <circle cx="228.6" cy="531.4454499999999" r="3" fill="#40ff40"/>
  <text x="236.6" y="534.4454499999999" font-size="8" fill="#00aa00">Opt</text>
  <text x="283.6" y="534.4454499999999" font-size="8">43331.6</text>
  <text x="363.6" y="534.4454499999999" font-size="8">3311.4 ms</text>
  <text x="443.6" y="534.4454499999999" font-size="8" fill="#666"></text>

  <!-- Summary Row -->
  <rect x="213.6" y="540.4454499999999" width="300" height="18" fill="#f8f8f8" stroke="#333" stroke-width="1"/>
  <text x="223.6" y="552.4454499999999" font-size="8" font-weight="bold">Diff:</text>
  <text x="283.6" y="552.4454499999999" font-size="8">0.0 (0.0%)</text>

</svg>