<?xml version="1.0" encoding="UTF-8"?>
<svg xmlns="http://www.w3.org/2000/svg"
     viewBox="214.80818000000002 12.255595 825.78805 308.576875"
     width="825.78805" height="308.576875"
     style="background: white;">

  <!-- Title -->
  <text x="234.80818000000002" y="52.255595" font-size="16" font-weight="bold" fill="#000">
    HollowSquare_Ballroom_0106
  </text>

  <!-- Original test paths (gray, semi-transparent) -->
  <g opacity="0.3">
    <path id="Ballroom_Aisle_46" d="m 458.19863,147.93412 h 19.85693 l 0,115.66661 -19.85693,-4.46781 z" fill="none" stroke="#808080" stroke-width="1"/>
    <path id="Ballroom_Aisle_56" d="m 680.59623,128.07719 -5.95708,19.85693 H 478.05556 v -19.85693 z" fill="none" stroke="#808080" stroke-width="1"/>
    <path id="Ballroom_Room_2" d="m 350.97122,147.93412 v 91.34187 c -40.53334,-7.65498 -76.62104,-11.70518 -116.16304,-13.40541 v -77.93646 z" fill="none" stroke="#808080" stroke-width="1"/>
    <path id="Ballroom_Room_4" d="m 458.19863,147.93412 v 111.1988 c -39.14199,-8.77234 -69.83329,-15.49794 -107.22741,-19.85693 v -91.34187 z" fill="none" stroke="#808080" stroke-width="1"/>
    <path id="Ballroom_Room_5" d="m 680.59623,32.255595 0,95.821595 H 478.05556 V 32.255595 Z" fill="none" stroke="#808080" stroke-width="1"/>
    <path id="Ballroom_Room_Grand" d="m 674.63915,147.93412 c -13.77093,46.32866 -28.44265,94.4522 -41.69955,140.98419 l -31.77108,11.91416 C 559.50968,285.82798 528.19209,276.69667 478.05556,263.60073 V 147.93412 Z" fill="none" stroke="#808080" stroke-width="1"/>
  </g>

  <!-- Boundary polygon (blue, dashed) -->
  <polygon points="234.81,147.93 350.97122,147.93412 458.19863,147.93412 478.05556,147.93412 478.05556,128.07719 478.05556,32.255595 680.59623,32.255595 680.59623,128.07719 674.63915,147.93412 632.9395999999999,288.91831 601.16852,300.83247 478.05556,263.60073 458.19863,259.13292 350.97122,239.27599 234.80818000000002,225.87058000000002" fill="none" stroke="#4080ff" stroke-width="2" stroke-dasharray="5,5"/>

  <!-- Layout rectangle (colored fill, solid border) -->
  <polygon points="502.3291915020721,34.02182429228766 664.043887816332,54.45114136326926 635.9692434979279,276.6848344577123 474.2545471836679,256.25551738673073" fill="rgba(147, 51, 234, 0.15)" stroke="#9333ea" stroke-width="3"/>

  <!-- Centroid marker -->
  <circle cx="569.1492175" cy="155.353329375" r="4" fill="#9333ea"/>
  <text x="577.1492175" y="160.353329375" font-size="10" fill="#9333ea">hollowsquare</text>

  <!-- Corner markers -->

  <circle cx="502.3291915020721" cy="34.02182429228766" r="3" fill="#9333ea"/>
  <text x="508.3291915020721" y="38.02182429228766" font-size="8" fill="#9333ea">c0</text>
  <circle cx="664.043887816332" cy="54.45114136326926" r="3" fill="#9333ea"/>
  <text x="670.043887816332" y="58.45114136326926" font-size="8" fill="#9333ea">c1</text>
  <circle cx="635.9692434979279" cy="276.6848344577123" r="3" fill="#9333ea"/>
  <text x="641.9692434979279" y="280.6848344577123" font-size="8" fill="#9333ea">c2</text>
  <circle cx="474.2545471836679" cy="256.25551738673073" r="3" fill="#9333ea"/>
  <text x="480.2545471836679" y="260.25551738673073" font-size="8" fill="#9333ea">c3</text>

  <!-- Vertex markers -->

  <circle cx="234.81" cy="147.93" r="2" fill="#4080ff"/>
  <text x="226.81" y="141.93" font-size="8" fill="#4080ff">p0</text>
  <circle cx="350.97122" cy="147.93412" r="2" fill="#4080ff"/>
  <text x="342.97122" y="141.93412" font-size="8" fill="#4080ff">p1</text>
  <circle cx="458.19863" cy="147.93412" r="2" fill="#4080ff"/>
  <text x="450.19863" y="141.93412" font-size="8" fill="#4080ff">p2</text>
  <circle cx="478.05556" cy="147.93412" r="2" fill="#4080ff"/>
  <text x="470.05556" y="141.93412" font-size="8" fill="#4080ff">p3</text>
  <circle cx="478.05556" cy="128.07719" r="2" fill="#4080ff"/>
  <text x="470.05556" y="122.07719" font-size="8" fill="#4080ff">p4</text>
  <circle cx="478.05556" cy="32.255595" r="2" fill="#4080ff"/>
  <text x="470.05556" y="26.255595" font-size="8" fill="#4080ff">p5</text>
  <circle cx="680.59623" cy="32.255595" r="2" fill="#4080ff"/>
  <text x="672.59623" y="26.255595" font-size="8" fill="#4080ff">p6</text>
  <circle cx="680.59623" cy="128.07719" r="2" fill="#4080ff"/>
  <text x="672.59623" y="122.07719" font-size="8" fill="#4080ff">p7</text>
  <circle cx="674.63915" cy="147.93412" r="2" fill="#4080ff"/>
  <text x="666.63915" y="141.93412" font-size="8" fill="#4080ff">p8</text>
  <circle cx="632.9395999999999" cy="288.91831" r="2" fill="#4080ff"/>
  <text x="624.9395999999999" y="282.91831" font-size="8" fill="#4080ff">p9</text>
  <circle cx="601.16852" cy="300.83247" r="2" fill="#4080ff"/>
  <text x="593.16852" y="294.83247" font-size="8" fill="#4080ff">p10</text>
  <circle cx="478.05556" cy="263.60073" r="2" fill="#4080ff"/>
  <text x="470.05556" y="257.60073" font-size="8" fill="#4080ff">p11</text>
  <circle cx="458.19863" cy="259.13292" r="2" fill="#4080ff"/>
  <text x="450.19863" y="253.13292" font-size="8" fill="#4080ff">p12</text>
  <circle cx="350.97122" cy="239.27599" r="2" fill="#4080ff"/>
  <text x="342.97122" y="233.27599" font-size="8" fill="#4080ff">p13</text>
  <circle cx="234.80818000000002" cy="225.87058000000002" r="2" fill="#4080ff"/>
  <text x="226.80818000000002" y="219.87058000000002" font-size="8" fill="#4080ff">p14</text>

  <!-- Data Table (positioned to the right) -->
  <g transform="translate(700.59623, 32.255595)">
    <rect x="0" y="0" width="320" height="160" fill="white" stroke="#ccc" stroke-width="1"/>
    <rect x="0" y="0" width="320" height="30" fill="#f0f0f0"/>
    <text x="160" y="20" font-size="14" font-weight="bold" text-anchor="middle">Hollow Square Layout</text>

    <text x="10" y="50" font-size="11" font-weight="bold">Tables:</text>
    <text x="310" y="50" font-size="11" text-anchor="end">122 (25L × 36D)</text>

    <text x="10" y="70" font-size="11" font-weight="bold">Dimensions:</text>
    <text x="310" y="70" font-size="11" text-anchor="end">163.0 × 224.0 ft</text>

    <text x="10" y="90" font-size="11" font-weight="bold">Area:</text>
    <text x="310" y="90" font-size="11" text-anchor="end">36512.00 sq ft</text>

    <text x="10" y="110" font-size="11" font-weight="bold">Fill Ratio:</text>
    <text x="310" y="110" font-size="11" text-anchor="end">51.8%</text>

    <text x="10" y="130" font-size="11" font-weight="bold">Angle:</text>
    <text x="310" y="130" font-size="11" text-anchor="end">7.2°</text>

    <text x="10" y="150" font-size="11" font-weight="bold">Runtime:</text>
    <text x="310" y="150" font-size="11" text-anchor="end">5.01s</text>
  </g>

  <!-- Area Data (embedded as XML comments for extraction) -->
  <!-- polygonArea: 70453.8385 -->
  <!-- layoutArea: 36512.00 -->
  <!-- fillRatio: 51.8 -->

</svg>